<svg viewBox="0 0 330 200" xmlns="http://www.w3.org/2000/svg"><g><g><g><g><g><line x1="50" y1="178" x2="45" y2="178" style="visibility: inherit;" fill="rgb(0, 0, 0)" stroke="rgb(204, 204, 204)" stroke-width="1px"></line><line x1="50" y1="158.22222222222223" x2="45" y2="158.22222222222223" style="visibility: inherit;" fill="rgb(0, 0, 0)" stroke="rgb(204, 204, 204)" stroke-width="1px"></line><line x1="50" y1="138.44444444444446" x2="45" y2="138.44444444444446" style="visibility: inherit;" fill="rgb(0, 0, 0)" stroke="rgb(204, 204, 204)" stroke-width="1px"></line><line x1="50" y1="118.66666666666666" x2="45" y2="118.66666666666666" style="visibility: inherit;" fill="rgb(0, 0, 0)" stroke="rgb(204, 204, 204)" stroke-width="1px"></line><line x1="50" y1="98.88888888888889" x2="45" y2="98.88888888888889" style="visibility: inherit;" fill="rgb(0, 0, 0)" stroke="rgb(204, 204, 204)" stroke-width="1px"></line><line x1="50" y1="79.1111111111111" x2="45" y2="79.1111111111111" style="visibility: inherit;" fill="rgb(0, 0, 0)" stroke="rgb(204, 204, 204)" stroke-width="1px"></line><line x1="50" y1="59.33333333333334" x2="45" y2="59.33333333333334" style="visibility: inherit;" fill="rgb(0, 0, 0)" stroke="rgb(204, 204, 204)" stroke-width="1px"></line><line x1="50" y1="39.55555555555557" x2="45" y2="39.55555555555557" style="visibility: inherit;" fill="rgb(0, 0, 0)" stroke="rgb(204, 204, 204)" stroke-width="1px"></line><line x1="50" y1="19.7777777777778" x2="45" y2="19.7777777777778" style="visibility: inherit;" fill="rgb(0, 0, 0)" stroke="rgb(204, 204, 204)" stroke-width="1px"></line><line x1="50" y1="0" x2="45" y2="0" style="visibility: inherit;" fill="rgb(0, 0, 0)" stroke="rgb(204, 204, 204)" stroke-width="1px"></line></g><g transform="translate(40, 0)"><text x="0" y="178" dx="0em" dy="0.3em" style="text-anchor: end; visibility: hidden; font-family: &quot;Helvetica Neue&quot;, sans-serif; font-size: 12px; font-weight: 200;" fill="rgb(50, 49, 63)" stroke="none" stroke-width="1px">-0.1</text><text x="0" y="158.22222222222223" dx="0em" dy="0.3em" style="text-anchor: end; visibility: inherit; font-family: &quot;Helvetica Neue&quot;, sans-serif; font-size: 12px; font-weight: 200;" fill="rgb(50, 49, 63)" stroke="none" stroke-width="1px">0</text><text x="0" y="138.44444444444446" dx="0em" dy="0.3em" style="text-anchor: end; visibility: hidden; font-family: &quot;Helvetica Neue&quot;, sans-serif; font-size: 12px; font-weight: 200;" fill="rgb(50, 49, 63)" stroke="none" stroke-width="1px">0.1</text><text x="0" y="118.66666666666666" dx="0em" dy="0.3em" style="text-anchor: end; visibility: inherit; font-family: &quot;Helvetica Neue&quot;, sans-serif; font-size: 12px; font-weight: 200;" fill="rgb(50, 49, 63)" stroke="none" stroke-width="1px">0.2</text><text x="0" y="98.88888888888889" dx="0em" dy="0.3em" style="text-anchor: end; visibility: hidden; font-family: &quot;Helvetica Neue&quot;, sans-serif; font-size: 12px; font-weight: 200;" fill="rgb(50, 49, 63)" stroke="none" stroke-width="1px">0.3</text><text x="0" y="79.1111111111111" dx="0em" dy="0.3em" style="text-anchor: end; visibility: inherit; font-family: &quot;Helvetica Neue&quot;, sans-serif; font-size: 12px; font-weight: 200;" fill="rgb(50, 49, 63)" stroke="none" stroke-width="1px">0.4</text><text x="0" y="59.33333333333334" dx="0em" dy="0.3em" style="text-anchor: end; visibility: hidden; font-family: &quot;Helvetica Neue&quot;, sans-serif; font-size: 12px; font-weight: 200;" fill="rgb(50, 49, 63)" stroke="none" stroke-width="1px">0.5</text><text x="0" y="39.55555555555557" dx="0em" dy="0.3em" style="text-anchor: end; visibility: inherit; font-family: &quot;Helvetica Neue&quot;, sans-serif; font-size: 12px; font-weight: 200;" fill="rgb(50, 49, 63)" stroke="none" stroke-width="1px">0.6</text><text x="0" y="19.7777777777778" dx="0em" dy="0.3em" style="text-anchor: end; visibility: hidden; font-family: &quot;Helvetica Neue&quot;, sans-serif; font-size: 12px; font-weight: 200;" fill="rgb(50, 49, 63)" stroke="none" stroke-width="1px">0.7</text><text x="0" y="0" dx="0em" dy="0.3em" style="text-anchor: end; visibility: hidden; font-family: &quot;Helvetica Neue&quot;, sans-serif; font-size: 12px; font-weight: 200;" fill="rgb(50, 49, 63)" stroke="none" stroke-width="1px">0.8</text></g><line x1="50" y1="0" x2="50" y2="178" fill="rgb(0, 0, 0)" stroke="rgb(204, 204, 204)" stroke-width="1px"></line></g></g><g transform="translate(50, 0)" clip-path="url(#clip_0)"><clipPath id="clip_0"><rect width="280" height="178"></rect></clipPath><g><g><g><line x1="0" y1="0" x2="0" y2="178" fill="rgb(0, 0, 0)" stroke="rgb(60, 60, 60)" stroke-width="1px" opacity="0.25"></line><line x1="31.11111111111111" y1="0" x2="31.11111111111111" y2="178" fill="rgb(0, 0, 0)" stroke="rgb(60, 60, 60)" stroke-width="1px" opacity="0.25"></line><line x1="62.22222222222222" y1="0" x2="62.22222222222222" y2="178" fill="rgb(0, 0, 0)" stroke="rgb(60, 60, 60)" stroke-width="1px" opacity="0.25"></line><line x1="93.33333333333333" y1="0" x2="93.33333333333333" y2="178" fill="rgb(0, 0, 0)" stroke="rgb(60, 60, 60)" stroke-width="1px" opacity="0.25"></line><line x1="124.44444444444444" y1="0" x2="124.44444444444444" y2="178" fill="rgb(0, 0, 0)" stroke="rgb(60, 60, 60)" stroke-width="1px" opacity="0.25"></line><line x1="155.55555555555557" y1="0" x2="155.55555555555557" y2="178" fill="rgb(0, 0, 0)" stroke="rgb(60, 60, 60)" stroke-width="1px" opacity="0.25"></line><line x1="186.66666666666666" y1="0" x2="186.66666666666666" y2="178" fill="rgb(0, 0, 0)" stroke="rgb(60, 60, 60)" stroke-width="1px" opacity="0.25"></line><line x1="217.77777777777777" y1="0" x2="217.77777777777777" y2="178" fill="rgb(0, 0, 0)" stroke="rgb(60, 60, 60)" stroke-width="1px" opacity="0.25"></line><line x1="248.88888888888889" y1="0" x2="248.88888888888889" y2="178" fill="rgb(0, 0, 0)" stroke="rgb(60, 60, 60)" stroke-width="1px" opacity="0.25"></line><line x1="280" y1="0" x2="280" y2="178" fill="rgb(0, 0, 0)" stroke="rgb(60, 60, 60)" stroke-width="1px" opacity="0.25"></line></g><g><line x1="0" y1="178" x2="280" y2="178" fill="rgb(0, 0, 0)" stroke="rgb(60, 60, 60)" stroke-width="1px" opacity="0.25"></line><line x1="0" y1="158.22222222222223" x2="280" y2="158.22222222222223" fill="rgb(0, 0, 0)" stroke="rgb(60, 60, 60)" stroke-width="1px" opacity="0.25"></line><line x1="0" y1="138.44444444444446" x2="280" y2="138.44444444444446" fill="rgb(0, 0, 0)" stroke="rgb(60, 60, 60)" stroke-width="1px" opacity="0.25"></line><line x1="0" y1="118.66666666666666" x2="280" y2="118.66666666666666" fill="rgb(0, 0, 0)" stroke="rgb(60, 60, 60)" stroke-width="1px" opacity="0.25"></line><line x1="0" y1="98.88888888888889" x2="280" y2="98.88888888888889" fill="rgb(0, 0, 0)" stroke="rgb(60, 60, 60)" stroke-width="1px" opacity="0.25"></line><line x1="0" y1="79.1111111111111" x2="280" y2="79.1111111111111" fill="rgb(0, 0, 0)" stroke="rgb(60, 60, 60)" stroke-width="1px" opacity="0.25"></line><line x1="0" y1="59.33333333333334" x2="280" y2="59.33333333333334" fill="rgb(0, 0, 0)" stroke="rgb(60, 60, 60)" stroke-width="1px" opacity="0.25"></line><line x1="0" y1="39.55555555555557" x2="280" y2="39.55555555555557" fill="rgb(0, 0, 0)" stroke="rgb(60, 60, 60)" stroke-width="1px" opacity="0.25"></line><line x1="0" y1="19.7777777777778" x2="280" y2="19.7777777777778" fill="rgb(0, 0, 0)" stroke="rgb(60, 60, 60)" stroke-width="1px" opacity="0.25"></line><line x1="0" y1="0" x2="280" y2="0" fill="rgb(0, 0, 0)" stroke="rgb(60, 60, 60)" stroke-width="1px" opacity="0.25"></line></g></g></g><g><g><line x1="0" y1="158.22222222222223" x2="280" y2="158.22222222222223" fill="rgb(0, 0, 0)" stroke="rgb(153, 153, 153)" stroke-width="1.5px"></line></g></g><g><g><line x1="31.11111111111111" y1="0" x2="31.11111111111111" y2="178" fill="rgb(0, 0, 0)" stroke="rgb(153, 153, 153)" stroke-width="1.5px"></line></g></g><g><g><g><g><g><path stroke="rgb(0, 119, 187)" stroke-width="2px" d="M31.11111111111111,151.76521000100507L37.333333333333336,153.0044986769143L43.55555555555556,149.70037717478615L49.77777777777778,149.17728351293363L56,146.94786321518117L62.22222222222222,144.1906638567831L68.44444444444444,143.83456385775855L74.66666666666667,141.02115012453916L80.88888888888889,140.12378373148312L87.11111111111111,134.8238288516593L93.33333333333333,138.70626926478369L99.55555555555556,141.33242034381888L105.77777777777777,134.0666266179004L112,132.92900130546812L118.22222222222223,134.70893719457322L124.44444444444444,134.37271121519387L130.66666666666666,129.85885295367942L136.88888888888889,129.6527375684802L143.1111111111111,133.6170768058301L149.33333333333334,131.41952248145463L155.55555555555557,139.53763839502403L161.77777777777777,136.3954922493401L168,137.33710294201074L174.22222222222223,133.0211504589793L180.44444444444446,131.75350344209014L186.66666666666666,131.86741162250195L192.88888888888889,131.793397467537L199.11111111111111,133.53865025796543L205.33333333333331,131.3928835838527L211.55555555555554,131.7527257923108L217.77777777777777,131.82627107558915L224,135.165000008176L230.2222222222222,133.9753205592021L236.44444444444446,131.30915646551017L242.66666666666669,132.80068957666393L248.88888888888889,142.94896569214333L255.11111111111111,139.49985630050514L261.3333333333333,134.78657423800286L267.55555555555554,131.3688311832594L273.77777777777777,128.58605155517884" style="fill: none;" fill="none"></path></g><g><path stroke="rgb(255, 112, 67)" stroke-width="2px" d="M31.11111111111111,99.99605413277945L37.333333333333336,115.86429636263185L43.55555555555556,114.19971663070643L49.77777777777778,106.81406911141147L56,102.26586959727683L62.22222222222222,94.56929563387814L68.44444444444444,86.23542045047581L74.66666666666667,77.00022564773377L80.88888888888889,64.15705826397556L87.11111111111111,52.34730464772545L93.33333333333333,44.26306728882267L99.55555555555556,34.48501834488107L105.77777777777777,31.303181703120515L112,30.04643241927576L118.22222222222223,24.82668428295804L124.44444444444444,31.000991108761895L130.66666666666666,22.554720549359303L136.88888888888889,15.344468566241119L143.1111111111111,33.39465234607749L149.33333333333334,24.072040422702713L155.55555555555557,14.17444116842563L161.77777777777777,25.346159820986486L168,36.06871070733192L174.22222222222223,30.630128188212723L180.44444444444446,28.38968122077958L186.66666666666666,25.080086501532662L192.88888888888889,25.49541216342749L199.11111111111111,38.08794424512831L205.33333333333331,38.09339543795747L211.55555555555554,31.827176961512237L217.77777777777777,35.48411441268132L224,42.2136518932017L230.2222222222222,48.64355735084263L236.44444444444446,51.21203464668635L242.66666666666669,60.00971443519133L248.88888888888889,66.23096869818217L255.11111111111111,66.19313764143854L261.3333333333333,60.229991072208406L267.55555555555554,51.156302319558066L273.77777777777777,42.19939726051595" style="fill: none;" fill="none"></path></g></g></g></g><g opacity="0.2"><g><g><g><path stroke="rgb(0, 119, 187)" stroke-width="2px" d="M31.11111111111111,151.76521000100507L37.333333333333336,153.74807188245984L43.55555555555556,146.52842053274313L49.77777777777778,148.56212536659507L56,144.03713207443556L62.22222222222222,140.37646455234952L68.44444444444444,143.32533516155348L74.66666666666667,136.91916589273347L80.88888888888889,138.80034260617361L87.11111111111111,126.95401353306241L93.33333333333333,144.49471643567085L99.55555555555556,145.2573555641704L105.77777777777777,123.1916601061821L112,131.22479206323624L118.22222222222223,137.37674878040949L124.44444444444444,133.86860937873521L130.66666666666666,123.08997567494711L136.88888888888889,129.34361682335538L143.1111111111111,139.56298173467317L149.33333333333334,128.12339186006122L155.55555555555557,151.71436704860793L161.77777777777777,131.68237642447156L168,138.74950039055614L174.22222222222223,126.54727286100388L180.44444444444446,129.8520419266489L186.66666666666666,132.0382734073533L192.88888888888889,131.68237642447156L199.11111111111111,136.15652676423392L205.33333333333331,128.174235549238L211.55555555555554,132.2924889061186L217.77777777777777,131.9365889761183L224,140.17309274276099L230.2222222222222,132.19080152776507L236.44444444444446,127.30991051594417L242.66666666666669,135.0379891792933L248.88888888888889,158.17137960367836L255.11111111111111,134.32619226641125L261.3333333333333,127.7166511880027L267.55555555555554,126.24221662018036L273.77777777777777,124.4118821223577" style="fill: none;" fill="none"></path></g><g><path stroke="rgb(255, 112, 67)" stroke-width="2px" d="M31.11111111111111,99.99605413277945L37.333333333333336,125.3852417005433L43.55555555555556,112.60172008805806L49.77777777777778,98.12854762872061L56,96.32774031162263L62.22222222222222,83.92216307587096L68.44444444444444,74.31784559620752L74.66666666666667,63.53522296746573L80.88888888888889,45.21588102976483L87.11111111111111,34.8111968835195L93.33333333333333,32.21003468831381L99.55555555555556,19.87115663952298L105.77777777777777,26.54081598917645L112,28.16377059618634L118.22222222222223,17.003197696473876L124.44444444444444,40.25809674792819L130.66666666666666,9.888888888888886L136.88888888888889,4.530921273761322L143.1111111111111,60.467178252008225L149.33333333333334,10.088974661297271L155.55555555555557,-0.6714149051242373L161.77777777777777,42.10337018966675L168,52.15232533878752L174.22222222222223,22.472318834728668L180.44444444444446,25.029026693767975L186.66666666666666,20.11570853657193L192.88888888888889,26.118399593565215L199.11111111111111,56.976723035176605L205.33333333333331,38.10157222217984L211.55555555555554,22.427852710088104L217.77777777777777,40.96951937675476L224,52.30795677502951L230.2222222222222,58.2884147697025L236.44444444444446,55.06475040647719L242.66666666666669,73.2062337398529L248.88888888888889,75.56284993224675L255.11111111111111,66.13639105690851L261.3333333333333,51.28527127371895L267.55555555555554,37.54576924112109L273.77777777777777,28.76403970188565" style="fill: none;" fill="none"></path></g></g></g></g></g></g><g transform="translate(50, 178)" clip-path="url(#clip_1)"><clipPath id="clip_1"><rect width="280" height="22"></rect></clipPath><g><g><line x1="0" y1="0" x2="0" y2="5" style="visibility: inherit;" fill="rgb(0, 0, 0)" stroke="rgb(204, 204, 204)" stroke-width="1px"></line><line x1="31.11111111111111" y1="0" x2="31.11111111111111" y2="5" style="visibility: inherit;" fill="rgb(0, 0, 0)" stroke="rgb(204, 204, 204)" stroke-width="1px"></line><line x1="62.22222222222222" y1="0" x2="62.22222222222222" y2="5" style="visibility: inherit;" fill="rgb(0, 0, 0)" stroke="rgb(204, 204, 204)" stroke-width="1px"></line><line x1="93.33333333333333" y1="0" x2="93.33333333333333" y2="5" style="visibility: inherit;" fill="rgb(0, 0, 0)" stroke="rgb(204, 204, 204)" stroke-width="1px"></line><line x1="124.44444444444444" y1="0" x2="124.44444444444444" y2="5" style="visibility: inherit;" fill="rgb(0, 0, 0)" stroke="rgb(204, 204, 204)" stroke-width="1px"></line><line x1="155.55555555555557" y1="0" x2="155.55555555555557" y2="5" style="visibility: inherit;" fill="rgb(0, 0, 0)" stroke="rgb(204, 204, 204)" stroke-width="1px"></line><line x1="186.66666666666666" y1="0" x2="186.66666666666666" y2="5" style="visibility: inherit;" fill="rgb(0, 0, 0)" stroke="rgb(204, 204, 204)" stroke-width="1px"></line><line x1="217.77777777777777" y1="0" x2="217.77777777777777" y2="5" style="visibility: inherit;" fill="rgb(0, 0, 0)" stroke="rgb(204, 204, 204)" stroke-width="1px"></line><line x1="248.88888888888889" y1="0" x2="248.88888888888889" y2="5" style="visibility: inherit;" fill="rgb(0, 0, 0)" stroke="rgb(204, 204, 204)" stroke-width="1px"></line><line x1="280" y1="0" x2="280" y2="5" style="visibility: inherit;" fill="rgb(0, 0, 0)" stroke="rgb(204, 204, 204)" stroke-width="1px"></line></g><g transform="translate(0, 8)"><text x="0" y="0" dx="0em" dy="0.95em" style="text-anchor: middle; visibility: hidden; font-family: &quot;Helvetica Neue&quot;, sans-serif; font-size: 12px; font-weight: 200;" fill="rgb(50, 49, 63)" stroke="none" stroke-width="1px">-5</text><text x="31.11111111111111" y="0" dx="0em" dy="0.95em" style="text-anchor: middle; visibility: inherit; font-family: &quot;Helvetica Neue&quot;, sans-serif; font-size: 12px; font-weight: 200;" fill="rgb(50, 49, 63)" stroke="none" stroke-width="1px">0</text><text x="62.22222222222222" y="0" dx="0em" dy="0.95em" style="text-anchor: middle; visibility: inherit; font-family: &quot;Helvetica Neue&quot;, sans-serif; font-size: 12px; font-weight: 200;" fill="rgb(50, 49, 63)" stroke="none" stroke-width="1px">5</text><text x="93.33333333333333" y="0" dx="0em" dy="0.95em" style="text-anchor: middle; visibility: inherit; font-family: &quot;Helvetica Neue&quot;, sans-serif; font-size: 12px; font-weight: 200;" fill="rgb(50, 49, 63)" stroke="none" stroke-width="1px">10</text><text x="124.44444444444444" y="0" dx="0em" dy="0.95em" style="text-anchor: middle; visibility: inherit; font-family: &quot;Helvetica Neue&quot;, sans-serif; font-size: 12px; font-weight: 200;" fill="rgb(50, 49, 63)" stroke="none" stroke-width="1px">15</text><text x="155.55555555555557" y="0" dx="0em" dy="0.95em" style="text-anchor: middle; visibility: inherit; font-family: &quot;Helvetica Neue&quot;, sans-serif; font-size: 12px; font-weight: 200;" fill="rgb(50, 49, 63)" stroke="none" stroke-width="1px">20</text><text x="186.66666666666666" y="0" dx="0em" dy="0.95em" style="text-anchor: middle; visibility: inherit; font-family: &quot;Helvetica Neue&quot;, sans-serif; font-size: 12px; font-weight: 200;" fill="rgb(50, 49, 63)" stroke="none" stroke-width="1px">25</text><text x="217.77777777777777" y="0" dx="0em" dy="0.95em" style="text-anchor: middle; visibility: inherit; font-family: &quot;Helvetica Neue&quot;, sans-serif; font-size: 12px; font-weight: 200;" fill="rgb(50, 49, 63)" stroke="none" stroke-width="1px">30</text><text x="248.88888888888889" y="0" dx="0em" dy="0.95em" style="text-anchor: middle; visibility: inherit; font-family: &quot;Helvetica Neue&quot;, sans-serif; font-size: 12px; font-weight: 200;" fill="rgb(50, 49, 63)" stroke="none" stroke-width="1px">35</text><text x="280" y="0" dx="0em" dy="0.95em" style="text-anchor: middle; visibility: hidden; font-family: &quot;Helvetica Neue&quot;, sans-serif; font-size: 12px; font-weight: 200;" fill="rgb(50, 49, 63)" stroke="none" stroke-width="1px">40</text></g><line x1="0" y1="0" x2="280" y2="0" fill="rgb(0, 0, 0)" stroke="rgb(204, 204, 204)" stroke-width="1px"></line></g></g></g></g></svg>