<svg viewBox="0 0 950.5 400" xmlns="http://www.w3.org/2000/svg"><g><g><g><g><g><line x1="40" y1="378" x2="35" y2="378" style="visibility: inherit;" fill="rgb(0, 0, 0)" stroke="rgb(204, 204, 204)" stroke-width="1px"></line><line x1="40" y1="340.2" x2="35" y2="340.2" style="visibility: inherit;" fill="rgb(0, 0, 0)" stroke="rgb(204, 204, 204)" stroke-width="1px"></line><line x1="40" y1="302.4" x2="35" y2="302.4" style="visibility: inherit;" fill="rgb(0, 0, 0)" stroke="rgb(204, 204, 204)" stroke-width="1px"></line><line x1="40" y1="264.6" x2="35" y2="264.6" style="visibility: inherit;" fill="rgb(0, 0, 0)" stroke="rgb(204, 204, 204)" stroke-width="1px"></line><line x1="40" y1="226.79999999999998" x2="35" y2="226.79999999999998" style="visibility: inherit;" fill="rgb(0, 0, 0)" stroke="rgb(204, 204, 204)" stroke-width="1px"></line><line x1="40" y1="189" x2="35" y2="189" style="visibility: inherit;" fill="rgb(0, 0, 0)" stroke="rgb(204, 204, 204)" stroke-width="1px"></line><line x1="40" y1="151.20000000000002" x2="35" y2="151.20000000000002" style="visibility: inherit;" fill="rgb(0, 0, 0)" stroke="rgb(204, 204, 204)" stroke-width="1px"></line><line x1="40" y1="113.40000000000003" x2="35" y2="113.40000000000003" style="visibility: inherit;" fill="rgb(0, 0, 0)" stroke="rgb(204, 204, 204)" stroke-width="1px"></line><line x1="40" y1="75.59999999999997" x2="35" y2="75.59999999999997" style="visibility: inherit;" fill="rgb(0, 0, 0)" stroke="rgb(204, 204, 204)" stroke-width="1px"></line><line x1="40" y1="37.80000000000001" x2="35" y2="37.80000000000001" style="visibility: inherit;" fill="rgb(0, 0, 0)" stroke="rgb(204, 204, 204)" stroke-width="1px"></line><line x1="40" y1="0" x2="35" y2="0" style="visibility: inherit;" fill="rgb(0, 0, 0)" stroke="rgb(204, 204, 204)" stroke-width="1px"></line></g><g transform="translate(30, 0)"><text x="0" y="378" dx="0em" dy="0.3em" style="text-anchor: end; visibility: hidden; font-family: &quot;Helvetica Neue&quot;, sans-serif; font-size: 12px; font-weight: 200;" fill="rgb(50, 49, 63)" stroke="none" stroke-width="1px">0</text><text x="0" y="340.2" dx="0em" dy="0.3em" style="text-anchor: end; visibility: inherit; font-family: &quot;Helvetica Neue&quot;, sans-serif; font-size: 12px; font-weight: 200;" fill="rgb(50, 49, 63)" stroke="none" stroke-width="1px">0.1</text><text x="0" y="302.4" dx="0em" dy="0.3em" style="text-anchor: end; visibility: inherit; font-family: &quot;Helvetica Neue&quot;, sans-serif; font-size: 12px; font-weight: 200;" fill="rgb(50, 49, 63)" stroke="none" stroke-width="1px">0.2</text><text x="0" y="264.6" dx="0em" dy="0.3em" style="text-anchor: end; visibility: inherit; font-family: &quot;Helvetica Neue&quot;, sans-serif; font-size: 12px; font-weight: 200;" fill="rgb(50, 49, 63)" stroke="none" stroke-width="1px">0.3</text><text x="0" y="226.79999999999998" dx="0em" dy="0.3em" style="text-anchor: end; visibility: inherit; font-family: &quot;Helvetica Neue&quot;, sans-serif; font-size: 12px; font-weight: 200;" fill="rgb(50, 49, 63)" stroke="none" stroke-width="1px">0.4</text><text x="0" y="189" dx="0em" dy="0.3em" style="text-anchor: end; visibility: inherit; font-family: &quot;Helvetica Neue&quot;, sans-serif; font-size: 12px; font-weight: 200;" fill="rgb(50, 49, 63)" stroke="none" stroke-width="1px">0.5</text><text x="0" y="151.20000000000002" dx="0em" dy="0.3em" style="text-anchor: end; visibility: inherit; font-family: &quot;Helvetica Neue&quot;, sans-serif; font-size: 12px; font-weight: 200;" fill="rgb(50, 49, 63)" stroke="none" stroke-width="1px">0.6</text><text x="0" y="113.40000000000003" dx="0em" dy="0.3em" style="text-anchor: end; visibility: inherit; font-family: &quot;Helvetica Neue&quot;, sans-serif; font-size: 12px; font-weight: 200;" fill="rgb(50, 49, 63)" stroke="none" stroke-width="1px">0.7</text><text x="0" y="75.59999999999997" dx="0em" dy="0.3em" style="text-anchor: end; visibility: inherit; font-family: &quot;Helvetica Neue&quot;, sans-serif; font-size: 12px; font-weight: 200;" fill="rgb(50, 49, 63)" stroke="none" stroke-width="1px">0.8</text><text x="0" y="37.80000000000001" dx="0em" dy="0.3em" style="text-anchor: end; visibility: inherit; font-family: &quot;Helvetica Neue&quot;, sans-serif; font-size: 12px; font-weight: 200;" fill="rgb(50, 49, 63)" stroke="none" stroke-width="1px">0.9</text><text x="0" y="0" dx="0em" dy="0.3em" style="text-anchor: end; visibility: hidden; font-family: &quot;Helvetica Neue&quot;, sans-serif; font-size: 12px; font-weight: 200;" fill="rgb(50, 49, 63)" stroke="none" stroke-width="1px">1</text></g><line x1="40" y1="0" x2="40" y2="378" fill="rgb(0, 0, 0)" stroke="rgb(204, 204, 204)" stroke-width="1px"></line></g></g><g transform="translate(40, 0)" clip-path="url(#clip_0)"><clipPath id="clip_0"><rect width="910" height="378"></rect></clipPath><g><g><g><line x1="0" y1="0" x2="0" y2="378" fill="rgb(0, 0, 0)" stroke="rgb(60, 60, 60)" stroke-width="1px" opacity="0.25"></line><line x1="75.875" y1="0" x2="75.875" y2="378" fill="rgb(0, 0, 0)" stroke="rgb(60, 60, 60)" stroke-width="1px" opacity="0.25"></line><line x1="151.75" y1="0" x2="151.75" y2="378" fill="rgb(0, 0, 0)" stroke="rgb(60, 60, 60)" stroke-width="1px" opacity="0.25"></line><line x1="227.625" y1="0" x2="227.625" y2="378" fill="rgb(0, 0, 0)" stroke="rgb(60, 60, 60)" stroke-width="1px" opacity="0.25"></line><line x1="303.5" y1="0" x2="303.5" y2="378" fill="rgb(0, 0, 0)" stroke="rgb(60, 60, 60)" stroke-width="1px" opacity="0.25"></line><line x1="379.375" y1="0" x2="379.375" y2="378" fill="rgb(0, 0, 0)" stroke="rgb(60, 60, 60)" stroke-width="1px" opacity="0.25"></line><line x1="455.25" y1="0" x2="455.25" y2="378" fill="rgb(0, 0, 0)" stroke="rgb(60, 60, 60)" stroke-width="1px" opacity="0.25"></line><line x1="531.125" y1="0" x2="531.125" y2="378" fill="rgb(0, 0, 0)" stroke="rgb(60, 60, 60)" stroke-width="1px" opacity="0.25"></line><line x1="607" y1="0" x2="607" y2="378" fill="rgb(0, 0, 0)" stroke="rgb(60, 60, 60)" stroke-width="1px" opacity="0.25"></line><line x1="682.875" y1="0" x2="682.875" y2="378" fill="rgb(0, 0, 0)" stroke="rgb(60, 60, 60)" stroke-width="1px" opacity="0.25"></line><line x1="758.75" y1="0" x2="758.75" y2="378" fill="rgb(0, 0, 0)" stroke="rgb(60, 60, 60)" stroke-width="1px" opacity="0.25"></line><line x1="834.625" y1="0" x2="834.625" y2="378" fill="rgb(0, 0, 0)" stroke="rgb(60, 60, 60)" stroke-width="1px" opacity="0.25"></line><line x1="910.5" y1="0" x2="910.5" y2="378" fill="rgb(0, 0, 0)" stroke="rgb(60, 60, 60)" stroke-width="1px" opacity="0.25"></line></g><g><line x1="0" y1="378" x2="910.5" y2="378" fill="rgb(0, 0, 0)" stroke="rgb(60, 60, 60)" stroke-width="1px" opacity="0.25"></line><line x1="0" y1="340.2" x2="910.5" y2="340.2" fill="rgb(0, 0, 0)" stroke="rgb(60, 60, 60)" stroke-width="1px" opacity="0.25"></line><line x1="0" y1="302.4" x2="910.5" y2="302.4" fill="rgb(0, 0, 0)" stroke="rgb(60, 60, 60)" stroke-width="1px" opacity="0.25"></line><line x1="0" y1="264.6" x2="910.5" y2="264.6" fill="rgb(0, 0, 0)" stroke="rgb(60, 60, 60)" stroke-width="1px" opacity="0.25"></line><line x1="0" y1="226.79999999999998" x2="910.5" y2="226.79999999999998" fill="rgb(0, 0, 0)" stroke="rgb(60, 60, 60)" stroke-width="1px" opacity="0.25"></line><line x1="0" y1="189" x2="910.5" y2="189" fill="rgb(0, 0, 0)" stroke="rgb(60, 60, 60)" stroke-width="1px" opacity="0.25"></line><line x1="0" y1="151.20000000000002" x2="910.5" y2="151.20000000000002" fill="rgb(0, 0, 0)" stroke="rgb(60, 60, 60)" stroke-width="1px" opacity="0.25"></line><line x1="0" y1="113.40000000000003" x2="910.5" y2="113.40000000000003" fill="rgb(0, 0, 0)" stroke="rgb(60, 60, 60)" stroke-width="1px" opacity="0.25"></line><line x1="0" y1="75.59999999999997" x2="910.5" y2="75.59999999999997" fill="rgb(0, 0, 0)" stroke="rgb(60, 60, 60)" stroke-width="1px" opacity="0.25"></line><line x1="0" y1="37.80000000000001" x2="910.5" y2="37.80000000000001" fill="rgb(0, 0, 0)" stroke="rgb(60, 60, 60)" stroke-width="1px" opacity="0.25"></line><line x1="0" y1="0" x2="910.5" y2="0" fill="rgb(0, 0, 0)" stroke="rgb(60, 60, 60)" stroke-width="1px" opacity="0.25"></line></g></g></g><g><g><line x1="0" y1="378" x2="910.5" y2="378" fill="rgb(0, 0, 0)" stroke="rgb(153, 153, 153)" stroke-width="1.5px"></line></g></g><g><g><line x1="75.875" y1="0" x2="75.875" y2="378" fill="rgb(0, 0, 0)" stroke="rgb(153, 153, 153)" stroke-width="1.5px"></line></g></g><g><g><g><g><g><path stroke="rgb(0, 119, 187)" stroke-width="2px" d="M75.875,327.90249824523926L91.05000000000001,322.52002593129873L106.22500000000001,319.64394086173604L121.39999999999999,307.6935462730334L136.575,276.4957189810185L151.75,251.3629575656321L166.92499999999998,225.3945021160082L182.10000000000002,201.9231193032413L197.275,197.299933268551L212.45000000000002,177.19005985228034L227.625,165.75987666535622L242.79999999999998,202.36048920483222L257.97499999999997,205.28017355711773L273.15,203.2113650365478L288.325,231.20994792022265L303.5,202.76125499288918L318.67499999999995,191.99515439608138L333.84999999999997,190.3524339874683L349.02500000000003,178.8467239605519L364.20000000000005,139.56902031069504L379.375,175.60305447560853L394.55,183.70294812761594L409.725,203.45328333138934L424.90000000000003,169.00233248913145L440.075,198.3369052891741L455.25,152.93131624629416L470.42500000000007,148.393960188904L485.59999999999997,134.81862824243146L500.77500000000003,122.67304264474652L515.9499999999999,120.23801989944951L531.125,185.19093382988117L546.3,211.5688475420634L561.475,195.20725136652874L576.65,157.8690843711827L591.825,147.4673559385865L607,131.1512581881804L622.1750000000001,109.61971033461907L637.3499999999999,99.36771458662349L652.525,103.51381928817352L667.6999999999999,92.8150057118923L682.875,117.84324543825232L698.0500000000001,153.6399991514776L713.225,155.8198598392638L728.4000000000001,142.97824478927302L743.5749999999999,143.6444676923434L758.75,158.19373289483215L773.925,170.2199178684528L789.1,194.54841505038377L804.275,213.47927025908484L819.45,175.49961092414114" style="fill: none;" fill="none"></path></g><g><path stroke="rgb(255, 112, 67)" stroke-width="2px" d="M75.875,347.81732404232025L91.05000000000001,344.72305848822L106.22500000000001,330.7030254006386L121.39999999999999,315.6364687818157L136.575,288.7200136887663L151.75,266.2675564595239L166.92499999999998,237.24051716546015L182.10000000000002,215.65351248241123L197.275,173.36705881525535L212.45000000000002,143.79547452555863L227.625,133.71654692888185L242.79999999999998,143.7439431162258L257.97499999999997,158.70432746840544L273.15,175.9258887474401L288.325,188.09240973165777L303.5,173.6162527221423L318.67499999999995,153.6746498352926L333.84999999999997,140.16564484257339L349.02500000000003,123.77448944530917L364.20000000000005,112.23798245885212L379.375,141.60583968425806L394.55,137.12953104183345L409.725,122.179530177353L424.90000000000003,92.32917857942232L440.075,94.88252960847257L455.25,78.26147364645527L470.42500000000007,69.38324953652108L485.59999999999997,63.917352333049166L500.77500000000003,63.90363042706116L515.9499999999999,68.11662400611641L531.125,86.9213513334355L546.3,179.10245101951455L561.475,213.3049446541934L576.65,186.42009890530537L591.825,145.22237113496516L607,103.63618013511336L622.1750000000001,74.0463255794499L637.3499999999999,59.28028009127212L652.525,54.190231107998216L667.6999999999999,44.55246691805951L682.875,61.074589962518644L698.0500000000001,109.62168361780158L713.225,134.85875961339266L728.4000000000001,143.55624788647046L743.5749999999999,146.7944131475784L758.75,151.23878077189613L773.925,127.69207307918464L789.1,125.06386941202695L804.275,154.94641173837033L819.45,161.81040166000577" style="fill: none;" fill="none"></path></g></g></g></g><g opacity="0.2"><g><g><g><path stroke="rgb(0, 119, 187)" stroke-width="2px" d="M75.875,327.90249824523926L91.05000000000001,319.2905425429344L106.22500000000001,316.8828991949558L121.39999999999999,293.63988223671913L136.575,235.76383566856384L151.75,216.59530073404312L166.92499999999998,188.2591953277588L182.10000000000002,167.7016178369522L197.275,190.48163187503815L212.45000000000002,147.32924151420593L227.625,148.71827280521393L242.79999999999998,257.0622290968895L257.97499999999997,209.65016680955887L273.15,200.11220526695251L288.325,273.17491096258163L303.5,160.1082798242569L318.67499999999995,175.85055935382843L333.84999999999997,187.88877046108246L349.02500000000003,161.58991169929504L364.20000000000005,80.6560549736023L379.375,229.65212953090668L394.55,195.85252207517624L409.725,233.07839620113373L424.90000000000003,117.32631433010101L440.075,242.33855599164963L455.25,84.82312631607056L470.42500000000007,141.58793771266937L485.59999999999997,114.45565116405487L500.77500000000003,104.4546754360199L515.9499999999999,116.58548712730408L531.125,282.6202831864357L546.3,251.13571286201477L561.475,170.66485905647278L576.65,101.86183655261993L591.825,131.86476373672485L607,106.67711198329926L622.1750000000001,77.3223888874054L637.3499999999999,83.9897210597992L652.525,109.7329763174057L667.6999999999999,76.76678538322449L682.875,155.38560497760773L698.0500000000001,207.33512967824936L713.225,159.0896508693695L728.4000000000001,123.71582221984863L743.5749999999999,144.64380204677582L758.75,180.0176306962967L773.925,188.2591953277588L789.1,231.04116082191467L804.275,241.87555307149887L819.45,118.53012192249298" style="fill: none;" fill="none"></path></g><g><path stroke="rgb(255, 112, 67)" stroke-width="2px" d="M75.875,347.81732404232025L91.05000000000001,342.8664991557598L106.22500000000001,317.24379363656044L121.39999999999999,297.91819819808006L136.575,253.577889919281L151.75,235.20772522687912L166.92499999999998,195.73138654232025L182.10000000000002,184.179452419281L197.275,111.00275337696075L212.45000000000002,99.88511824607849L227.625,118.6895706653595L242.79999999999998,158.73046875L257.97499999999997,181.0960557460785L273.15,201.7244918346405L288.325,206.327889919281L303.5,151.9122269153595L318.67499999999995,123.77068412303925L333.84999999999997,119.90556728839874L349.02500000000003,99.19025337696075L364.20000000000005,94.93427646160126L379.375,185.656014919281L394.55,130.41521537303925L409.725,99.75482404232025L424.90000000000003,47.55400478839874L440.075,98.71253800392151L455.25,53.3299605846405L470.42500000000007,56.06593608856201L485.59999999999997,55.718514919281006L500.77500000000003,63.883047580718994L515.9499999999999,74.43611204624176L531.125,115.12843608856201L546.3,317.37408220767975L561.475,264.6086810231209L576.65,146.09283220767975L591.825,83.42578125L607,41.25689470767975L622.1750000000001,29.66154420375824L637.3499999999999,37.13121199607849L652.525,46.55515766143799L667.6999999999999,30.095820665359497L682.875,85.85777449607849L698.0500000000001,182.44232404232025L713.225,172.714373588562L728.4000000000001,156.60248029232025L743.5749999999999,151.65166103839874L758.75,157.90533220767975L773.925,92.37201154232025L789.1,121.12156391143799L804.275,199.77022522687912L819.45,172.10638654232025" style="fill: none;" fill="none"></path></g></g></g></g></g></g><g transform="translate(40, 378)" clip-path="url(#clip_1)"><clipPath id="clip_1"><rect width="910" height="22"></rect></clipPath><g><g><line x1="0" y1="0" x2="0" y2="5" style="visibility: inherit;" fill="rgb(0, 0, 0)" stroke="rgb(204, 204, 204)" stroke-width="1px"></line><line x1="75.875" y1="0" x2="75.875" y2="5" style="visibility: inherit;" fill="rgb(0, 0, 0)" stroke="rgb(204, 204, 204)" stroke-width="1px"></line><line x1="151.75" y1="0" x2="151.75" y2="5" style="visibility: inherit;" fill="rgb(0, 0, 0)" stroke="rgb(204, 204, 204)" stroke-width="1px"></line><line x1="227.625" y1="0" x2="227.625" y2="5" style="visibility: inherit;" fill="rgb(0, 0, 0)" stroke="rgb(204, 204, 204)" stroke-width="1px"></line><line x1="303.5" y1="0" x2="303.5" y2="5" style="visibility: inherit;" fill="rgb(0, 0, 0)" stroke="rgb(204, 204, 204)" stroke-width="1px"></line><line x1="379.375" y1="0" x2="379.375" y2="5" style="visibility: inherit;" fill="rgb(0, 0, 0)" stroke="rgb(204, 204, 204)" stroke-width="1px"></line><line x1="455.25" y1="0" x2="455.25" y2="5" style="visibility: inherit;" fill="rgb(0, 0, 0)" stroke="rgb(204, 204, 204)" stroke-width="1px"></line><line x1="531.125" y1="0" x2="531.125" y2="5" style="visibility: inherit;" fill="rgb(0, 0, 0)" stroke="rgb(204, 204, 204)" stroke-width="1px"></line><line x1="607" y1="0" x2="607" y2="5" style="visibility: inherit;" fill="rgb(0, 0, 0)" stroke="rgb(204, 204, 204)" stroke-width="1px"></line><line x1="682.875" y1="0" x2="682.875" y2="5" style="visibility: inherit;" fill="rgb(0, 0, 0)" stroke="rgb(204, 204, 204)" stroke-width="1px"></line><line x1="758.75" y1="0" x2="758.75" y2="5" style="visibility: inherit;" fill="rgb(0, 0, 0)" stroke="rgb(204, 204, 204)" stroke-width="1px"></line><line x1="834.625" y1="0" x2="834.625" y2="5" style="visibility: inherit;" fill="rgb(0, 0, 0)" stroke="rgb(204, 204, 204)" stroke-width="1px"></line><line x1="910.5" y1="0" x2="910.5" y2="5" style="visibility: inherit;" fill="rgb(0, 0, 0)" stroke="rgb(204, 204, 204)" stroke-width="1px"></line></g><g transform="translate(0, 8)"><text x="0" y="0" dx="0em" dy="0.95em" style="text-anchor: middle; visibility: hidden; font-family: &quot;Helvetica Neue&quot;, sans-serif; font-size: 12px; font-weight: 200;" fill="rgb(50, 49, 63)" stroke="none" stroke-width="1px">-5</text><text x="75.875" y="0" dx="0em" dy="0.95em" style="text-anchor: middle; visibility: inherit; font-family: &quot;Helvetica Neue&quot;, sans-serif; font-size: 12px; font-weight: 200;" fill="rgb(50, 49, 63)" stroke="none" stroke-width="1px">0</text><text x="151.75" y="0" dx="0em" dy="0.95em" style="text-anchor: middle; visibility: inherit; font-family: &quot;Helvetica Neue&quot;, sans-serif; font-size: 12px; font-weight: 200;" fill="rgb(50, 49, 63)" stroke="none" stroke-width="1px">5</text><text x="227.625" y="0" dx="0em" dy="0.95em" style="text-anchor: middle; visibility: inherit; font-family: &quot;Helvetica Neue&quot;, sans-serif; font-size: 12px; font-weight: 200;" fill="rgb(50, 49, 63)" stroke="none" stroke-width="1px">10</text><text x="303.5" y="0" dx="0em" dy="0.95em" style="text-anchor: middle; visibility: inherit; font-family: &quot;Helvetica Neue&quot;, sans-serif; font-size: 12px; font-weight: 200;" fill="rgb(50, 49, 63)" stroke="none" stroke-width="1px">15</text><text x="379.375" y="0" dx="0em" dy="0.95em" style="text-anchor: middle; visibility: inherit; font-family: &quot;Helvetica Neue&quot;, sans-serif; font-size: 12px; font-weight: 200;" fill="rgb(50, 49, 63)" stroke="none" stroke-width="1px">20</text><text x="455.25" y="0" dx="0em" dy="0.95em" style="text-anchor: middle; visibility: inherit; font-family: &quot;Helvetica Neue&quot;, sans-serif; font-size: 12px; font-weight: 200;" fill="rgb(50, 49, 63)" stroke="none" stroke-width="1px">25</text><text x="531.125" y="0" dx="0em" dy="0.95em" style="text-anchor: middle; visibility: inherit; font-family: &quot;Helvetica Neue&quot;, sans-serif; font-size: 12px; font-weight: 200;" fill="rgb(50, 49, 63)" stroke="none" stroke-width="1px">30</text><text x="607" y="0" dx="0em" dy="0.95em" style="text-anchor: middle; visibility: inherit; font-family: &quot;Helvetica Neue&quot;, sans-serif; font-size: 12px; font-weight: 200;" fill="rgb(50, 49, 63)" stroke="none" stroke-width="1px">35</text><text x="682.875" y="0" dx="0em" dy="0.95em" style="text-anchor: middle; visibility: inherit; font-family: &quot;Helvetica Neue&quot;, sans-serif; font-size: 12px; font-weight: 200;" fill="rgb(50, 49, 63)" stroke="none" stroke-width="1px">40</text><text x="758.75" y="0" dx="0em" dy="0.95em" style="text-anchor: middle; visibility: inherit; font-family: &quot;Helvetica Neue&quot;, sans-serif; font-size: 12px; font-weight: 200;" fill="rgb(50, 49, 63)" stroke="none" stroke-width="1px">45</text><text x="834.625" y="0" dx="0em" dy="0.95em" style="text-anchor: middle; visibility: inherit; font-family: &quot;Helvetica Neue&quot;, sans-serif; font-size: 12px; font-weight: 200;" fill="rgb(50, 49, 63)" stroke="none" stroke-width="1px">50</text><text x="910.5" y="0" dx="0em" dy="0.95em" style="text-anchor: middle; visibility: hidden; font-family: &quot;Helvetica Neue&quot;, sans-serif; font-size: 12px; font-weight: 200;" fill="rgb(50, 49, 63)" stroke="none" stroke-width="1px">55</text></g><line x1="0" y1="0" x2="910.5" y2="0" fill="rgb(0, 0, 0)" stroke="rgb(204, 204, 204)" stroke-width="1px"></line></g></g></g></g></svg>