<svg viewBox="0 0 950.5 400" xmlns="http://www.w3.org/2000/svg"><g><g><g><g><g><line x1="30" y1="378" x2="25" y2="378" style="visibility: inherit;" fill="rgb(0, 0, 0)" stroke="rgb(204, 204, 204)" stroke-width="1px"></line><line x1="30" y1="340.2" x2="25" y2="340.2" style="visibility: inherit;" fill="rgb(0, 0, 0)" stroke="rgb(204, 204, 204)" stroke-width="1px"></line><line x1="30" y1="302.4" x2="25" y2="302.4" style="visibility: inherit;" fill="rgb(0, 0, 0)" stroke="rgb(204, 204, 204)" stroke-width="1px"></line><line x1="30" y1="264.6" x2="25" y2="264.6" style="visibility: inherit;" fill="rgb(0, 0, 0)" stroke="rgb(204, 204, 204)" stroke-width="1px"></line><line x1="30" y1="226.79999999999998" x2="25" y2="226.79999999999998" style="visibility: inherit;" fill="rgb(0, 0, 0)" stroke="rgb(204, 204, 204)" stroke-width="1px"></line><line x1="30" y1="189" x2="25" y2="189" style="visibility: inherit;" fill="rgb(0, 0, 0)" stroke="rgb(204, 204, 204)" stroke-width="1px"></line><line x1="30" y1="151.20000000000002" x2="25" y2="151.20000000000002" style="visibility: inherit;" fill="rgb(0, 0, 0)" stroke="rgb(204, 204, 204)" stroke-width="1px"></line><line x1="30" y1="113.40000000000003" x2="25" y2="113.40000000000003" style="visibility: inherit;" fill="rgb(0, 0, 0)" stroke="rgb(204, 204, 204)" stroke-width="1px"></line><line x1="30" y1="75.59999999999997" x2="25" y2="75.59999999999997" style="visibility: inherit;" fill="rgb(0, 0, 0)" stroke="rgb(204, 204, 204)" stroke-width="1px"></line><line x1="30" y1="37.80000000000001" x2="25" y2="37.80000000000001" style="visibility: inherit;" fill="rgb(0, 0, 0)" stroke="rgb(204, 204, 204)" stroke-width="1px"></line><line x1="30" y1="0" x2="25" y2="0" style="visibility: inherit;" fill="rgb(0, 0, 0)" stroke="rgb(204, 204, 204)" stroke-width="1px"></line></g><g transform="translate(20, 0)"><text x="0" y="378" dx="0em" dy="0.3em" style="text-anchor: end; visibility: hidden; font-family: &quot;Helvetica Neue&quot;, sans-serif; font-size: 12px; font-weight: 200;" fill="rgb(50, 49, 63)" stroke="none" stroke-width="1px">-5</text><text x="0" y="340.2" dx="0em" dy="0.3em" style="text-anchor: end; visibility: inherit; font-family: &quot;Helvetica Neue&quot;, sans-serif; font-size: 12px; font-weight: 200;" fill="rgb(50, 49, 63)" stroke="none" stroke-width="1px">0</text><text x="0" y="302.4" dx="0em" dy="0.3em" style="text-anchor: end; visibility: inherit; font-family: &quot;Helvetica Neue&quot;, sans-serif; font-size: 12px; font-weight: 200;" fill="rgb(50, 49, 63)" stroke="none" stroke-width="1px">5</text><text x="0" y="264.6" dx="0em" dy="0.3em" style="text-anchor: end; visibility: inherit; font-family: &quot;Helvetica Neue&quot;, sans-serif; font-size: 12px; font-weight: 200;" fill="rgb(50, 49, 63)" stroke="none" stroke-width="1px">10</text><text x="0" y="226.79999999999998" dx="0em" dy="0.3em" style="text-anchor: end; visibility: inherit; font-family: &quot;Helvetica Neue&quot;, sans-serif; font-size: 12px; font-weight: 200;" fill="rgb(50, 49, 63)" stroke="none" stroke-width="1px">15</text><text x="0" y="189" dx="0em" dy="0.3em" style="text-anchor: end; visibility: inherit; font-family: &quot;Helvetica Neue&quot;, sans-serif; font-size: 12px; font-weight: 200;" fill="rgb(50, 49, 63)" stroke="none" stroke-width="1px">20</text><text x="0" y="151.20000000000002" dx="0em" dy="0.3em" style="text-anchor: end; visibility: inherit; font-family: &quot;Helvetica Neue&quot;, sans-serif; font-size: 12px; font-weight: 200;" fill="rgb(50, 49, 63)" stroke="none" stroke-width="1px">25</text><text x="0" y="113.40000000000003" dx="0em" dy="0.3em" style="text-anchor: end; visibility: inherit; font-family: &quot;Helvetica Neue&quot;, sans-serif; font-size: 12px; font-weight: 200;" fill="rgb(50, 49, 63)" stroke="none" stroke-width="1px">30</text><text x="0" y="75.59999999999997" dx="0em" dy="0.3em" style="text-anchor: end; visibility: inherit; font-family: &quot;Helvetica Neue&quot;, sans-serif; font-size: 12px; font-weight: 200;" fill="rgb(50, 49, 63)" stroke="none" stroke-width="1px">35</text><text x="0" y="37.80000000000001" dx="0em" dy="0.3em" style="text-anchor: end; visibility: inherit; font-family: &quot;Helvetica Neue&quot;, sans-serif; font-size: 12px; font-weight: 200;" fill="rgb(50, 49, 63)" stroke="none" stroke-width="1px">40</text><text x="0" y="0" dx="0em" dy="0.3em" style="text-anchor: end; visibility: hidden; font-family: &quot;Helvetica Neue&quot;, sans-serif; font-size: 12px; font-weight: 200;" fill="rgb(50, 49, 63)" stroke="none" stroke-width="1px">45</text></g><line x1="30" y1="0" x2="30" y2="378" fill="rgb(0, 0, 0)" stroke="rgb(204, 204, 204)" stroke-width="1px"></line></g></g><g transform="translate(30, 0)" clip-path="url(#clip_0)"><clipPath id="clip_0"><rect width="920" height="378"></rect></clipPath><g><g><g><line x1="0" y1="0" x2="0" y2="378" fill="rgb(0, 0, 0)" stroke="rgb(60, 60, 60)" stroke-width="1px" opacity="0.25"></line><line x1="76.70833333333333" y1="0" x2="76.70833333333333" y2="378" fill="rgb(0, 0, 0)" stroke="rgb(60, 60, 60)" stroke-width="1px" opacity="0.25"></line><line x1="153.41666666666666" y1="0" x2="153.41666666666666" y2="378" fill="rgb(0, 0, 0)" stroke="rgb(60, 60, 60)" stroke-width="1px" opacity="0.25"></line><line x1="230.125" y1="0" x2="230.125" y2="378" fill="rgb(0, 0, 0)" stroke="rgb(60, 60, 60)" stroke-width="1px" opacity="0.25"></line><line x1="306.8333333333333" y1="0" x2="306.8333333333333" y2="378" fill="rgb(0, 0, 0)" stroke="rgb(60, 60, 60)" stroke-width="1px" opacity="0.25"></line><line x1="383.5416666666667" y1="0" x2="383.5416666666667" y2="378" fill="rgb(0, 0, 0)" stroke="rgb(60, 60, 60)" stroke-width="1px" opacity="0.25"></line><line x1="460.25" y1="0" x2="460.25" y2="378" fill="rgb(0, 0, 0)" stroke="rgb(60, 60, 60)" stroke-width="1px" opacity="0.25"></line><line x1="536.9583333333334" y1="0" x2="536.9583333333334" y2="378" fill="rgb(0, 0, 0)" stroke="rgb(60, 60, 60)" stroke-width="1px" opacity="0.25"></line><line x1="613.6666666666666" y1="0" x2="613.6666666666666" y2="378" fill="rgb(0, 0, 0)" stroke="rgb(60, 60, 60)" stroke-width="1px" opacity="0.25"></line><line x1="690.375" y1="0" x2="690.375" y2="378" fill="rgb(0, 0, 0)" stroke="rgb(60, 60, 60)" stroke-width="1px" opacity="0.25"></line><line x1="767.0833333333334" y1="0" x2="767.0833333333334" y2="378" fill="rgb(0, 0, 0)" stroke="rgb(60, 60, 60)" stroke-width="1px" opacity="0.25"></line><line x1="843.7916666666666" y1="0" x2="843.7916666666666" y2="378" fill="rgb(0, 0, 0)" stroke="rgb(60, 60, 60)" stroke-width="1px" opacity="0.25"></line><line x1="920.5" y1="0" x2="920.5" y2="378" fill="rgb(0, 0, 0)" stroke="rgb(60, 60, 60)" stroke-width="1px" opacity="0.25"></line></g><g><line x1="0" y1="378" x2="920.5" y2="378" fill="rgb(0, 0, 0)" stroke="rgb(60, 60, 60)" stroke-width="1px" opacity="0.25"></line><line x1="0" y1="340.2" x2="920.5" y2="340.2" fill="rgb(0, 0, 0)" stroke="rgb(60, 60, 60)" stroke-width="1px" opacity="0.25"></line><line x1="0" y1="302.4" x2="920.5" y2="302.4" fill="rgb(0, 0, 0)" stroke="rgb(60, 60, 60)" stroke-width="1px" opacity="0.25"></line><line x1="0" y1="264.6" x2="920.5" y2="264.6" fill="rgb(0, 0, 0)" stroke="rgb(60, 60, 60)" stroke-width="1px" opacity="0.25"></line><line x1="0" y1="226.79999999999998" x2="920.5" y2="226.79999999999998" fill="rgb(0, 0, 0)" stroke="rgb(60, 60, 60)" stroke-width="1px" opacity="0.25"></line><line x1="0" y1="189" x2="920.5" y2="189" fill="rgb(0, 0, 0)" stroke="rgb(60, 60, 60)" stroke-width="1px" opacity="0.25"></line><line x1="0" y1="151.20000000000002" x2="920.5" y2="151.20000000000002" fill="rgb(0, 0, 0)" stroke="rgb(60, 60, 60)" stroke-width="1px" opacity="0.25"></line><line x1="0" y1="113.40000000000003" x2="920.5" y2="113.40000000000003" fill="rgb(0, 0, 0)" stroke="rgb(60, 60, 60)" stroke-width="1px" opacity="0.25"></line><line x1="0" y1="75.59999999999997" x2="920.5" y2="75.59999999999997" fill="rgb(0, 0, 0)" stroke="rgb(60, 60, 60)" stroke-width="1px" opacity="0.25"></line><line x1="0" y1="37.80000000000001" x2="920.5" y2="37.80000000000001" fill="rgb(0, 0, 0)" stroke="rgb(60, 60, 60)" stroke-width="1px" opacity="0.25"></line><line x1="0" y1="0" x2="920.5" y2="0" fill="rgb(0, 0, 0)" stroke="rgb(60, 60, 60)" stroke-width="1px" opacity="0.25"></line></g></g></g><g><g><line x1="0" y1="340.2" x2="920.5" y2="340.2" fill="rgb(0, 0, 0)" stroke="rgb(153, 153, 153)" stroke-width="1.5px"></line></g></g><g><g><line x1="76.70833333333333" y1="0" x2="76.70833333333333" y2="378" fill="rgb(0, 0, 0)" stroke="rgb(153, 153, 153)" stroke-width="1.5px"></line></g></g><g><g><g><g><g><path stroke="rgb(0, 119, 187)" stroke-width="2px" d="M76.70833333333333,44.11850509643551L92.05000000000001,163.7267096042633L107.39166666666667,214.9036833899362L122.73333333333333,254.15283723087873L138.075,277.0545467390607L153.41666666666666,293.8837307498867L168.75833333333333,302.25522549239844L184.10000000000002,307.6933355243655L199.44166666666666,310.59891558429956L214.78333333333333,314.9462153232435L230.125,318.24321770587716L245.46666666666667,305.79181452116626L260.80833333333334,304.97236824384174L276.15,286.4595064534558L291.4916666666667,263.390174783L306.8333333333333,262.1704219121805L322.17499999999995,261.57601863881644L337.51666666666665,264.5149297395403L352.85833333333335,283.6001750438428L368.20000000000005,301.36053542676393L383.5416666666667,280.3485303759448L398.8833333333333,266.29674943574133L414.225,260.56309071523754L429.56666666666666,278.48386272258483L444.90833333333336,273.6577935674383L460.25,293.934476803914L475.5916666666667,301.86925003160684L490.93333333333334,312.56887527125906L506.27500000000003,315.4574590281289L521.6166666666667,318.97812488828947L536.9583333333334,263.12258233728386L552.3,257.32180115323024L567.6416666666667,267.2563968401627L582.9833333333333,288.7633387813321L598.325,302.25164697143697L613.6666666666666,311.925765231574L629.0083333333333,315.80765620734064L644.3499999999999,311.3985150871217L659.6916666666667,315.411549380275L675.0333333333333,314.25931935898564L690.375,287.3543033858044L705.7166666666667,260.89911108674477L721.0583333333333,263.05746262434974L736.4000000000001,273.47064929119654L751.7416666666667,264.61735141156623L767.0833333333334,248.62754751891615L782.425,182.5328713433491L797.7666666666667,182.2735620699196L813.1083333333333,153.29583411045786L828.45,196.0508539975041" style="fill: none;" fill="none"></path></g><g><path stroke="rgb(255, 112, 67)" stroke-width="2px" d="M76.70833333333333,25.872547302246062L92.05000000000001,114.75752726554867L107.39166666666667,188.08004176548553L122.73333333333333,234.78146280442968L138.075,264.96325574266007L153.41666666666666,286.51961975146054L168.75833333333333,302.0974776192023L184.10000000000002,309.95769165413026L199.44166666666666,319.2746914401056L214.78333333333333,325.4658479158064L230.125,327.6565366294518L245.46666666666667,326.7247931737788L260.80833333333334,323.3349737494716L276.15,320.0318941290381L291.4916666666667,313.2031923411993L306.8333333333333,317.29512204823055L322.17499999999995,321.4701828756457L337.51666666666665,321.66880804411323L352.85833333333335,321.47765762753625L368.20000000000005,324.89055862722773L383.5416666666667,316.9909320318489L398.8833333333333,318.75861548279147L414.225,324.155230888404L429.56666666666666,329.1190836964502L444.90833333333336,321.4727615060419L460.25,326.63130239424675L475.5916666666667,330.2081908591777L490.93333333333334,333.0589532620311L506.27500000000003,334.1666567939558L521.6166666666667,331.20973741262014L536.9583333333334,324.39428140483795L552.3,245.4223644987135L567.6416666666667,217.5468132421391L582.9833333333333,250.95693591790376L598.325,283.4000775499759L613.6666666666666,304.50447324226366L629.0083333333333,318.4728307392191L644.3499999999999,326.82597380306527L659.6916666666667,331.16445350556285L675.0333333333333,333.11932623688654L690.375,329.92567640515887L705.7166666666667,299.3407811488115L721.0583333333333,272.5040912248731L736.4000000000001,281.8540782411824L751.7416666666667,282.7422225643086L767.0833333333334,276.53050619139594L782.425,280.9063827326405L797.7666666666667,262.5865220830206L813.1083333333333,219.3974740097286L828.45,212.05657128932273" style="fill: none;" fill="none"></path></g></g></g></g><g opacity="0.2"><g><g><g><path stroke="rgb(0, 119, 187)" stroke-width="2px" d="M76.70833333333333,44.11850509643551L92.05000000000001,235.49163230895996L107.39166666666667,264.0335782241821L122.73333333333333,300.3098421478271L138.075,306.9550186729431L153.41666666666666,317.164550743103L168.75833333333333,314.22659691810605L184.10000000000002,315.6221521568298L199.44166666666666,314.8840817928314L214.78333333333333,321.4014487838745L230.125,323.15881771087646L245.46666666666667,287.1824697303772L260.80833333333334,303.7458744621277L276.15,258.7264823913574L291.4916666666667,228.81329441070557L306.8333333333333,260.3416528701782L322.17499999999995,260.68466526031494L337.51666666666665,268.922550201416L352.85833333333335,312.22513555526734L368.20000000000005,327.99945263385774L383.5416666666667,248.83167514801025L398.8833333333333,245.21954040527342L414.225,251.9627158355713L429.56666666666666,305.3648084449768L444.90833333333336,266.4187241363525L460.25,324.3494151878357L475.5916666666667,313.77138957023624L490.93333333333334,328.6182967042923L506.27500000000003,319.7903320026398L521.6166666666667,324.2591217327118L536.9583333333334,179.33928703308104L552.3,248.62063053131104L567.6416666666667,282.1582891845703L582.9833333333333,321.02375015258787L598.325,322.4841086769104L613.6666666666666,326.4369423723221L629.0083333333333,321.6304926109314L644.3499999999999,304.7848034477234L659.6916666666667,321.4311007976532L675.0333333333333,312.5309743309021L690.375,246.99677947998046L705.7166666666667,221.2163226699829L721.0583333333333,266.29498992919923L736.4000000000001,289.0904292869568L751.7416666666667,251.3374045944214L767.0833333333334,224.64284168243407L782.425,83.39085708618165L797.7666666666667,181.88459815979004L813.1083333333333,109.82924217224121L828.45,260.18338382720947" style="fill: none;" fill="none"></path></g><g><path stroke="rgb(255, 112, 67)" stroke-width="2px" d="M76.70833333333333,25.872547302246062L92.05000000000001,168.08851524353025L107.39166666666667,258.4696556854248L122.73333333333333,289.702333946228L138.075,304.3686046028137L153.41666666666666,316.3398314666748L168.75833333333333,324.37406361579895L184.10000000000002,321.41795917510984L199.44166666666666,333.01545639038085L214.78333333333333,334.65899374008177L230.125,330.92270031452176L245.46666666666667,325.3322484970093L260.80833333333334,318.26131296157837L276.15,315.0837457752228L291.4916666666667,302.9681665420532L306.8333333333333,323.4301306629181L322.17499999999995,327.7310073709488L337.51666666666665,321.96669536590576L352.85833333333335,321.1909611225128L368.20000000000005,330.0095981740952L383.5416666666667,305.14192537307736L398.8833333333333,321.4100824928284L414.225,332.2500474500656L429.56666666666666,336.56480410695076L444.90833333333336,310.00333256721495L460.25,334.36909172773363L475.5916666666667,335.5735144042969L490.93333333333334,337.3350924897194L506.27500000000003,335.82821107149124L521.6166666666667,326.77435997486117L536.9583333333334,314.171099653244L552.3,126.96450485229494L567.6416666666667,175.7334896850586L582.9833333333333,301.0721175384522L598.325,332.06478860378263L613.6666666666666,336.16106623649597L629.0083333333333,339.42536676853894L644.3499999999999,339.3556883212924L659.6916666666667,337.6721730351448L675.0333333333333,336.05163532733917L690.375,325.135201663971L705.7166666666667,253.46343830108643L721.0583333333333,232.2490563583374L736.4000000000001,295.8790587615967L751.7416666666667,284.0744390487671L767.0833333333334,267.2129316329956L782.425,287.4701975440979L797.7666666666667,235.10673110961915L813.1083333333333,154.6139019012451L828.45,201.0452172088623" style="fill: none;" fill="none"></path></g></g></g></g></g></g><g transform="translate(30, 378)" clip-path="url(#clip_1)"><clipPath id="clip_1"><rect width="920" height="22"></rect></clipPath><g><g><line x1="0" y1="0" x2="0" y2="5" style="visibility: inherit;" fill="rgb(0, 0, 0)" stroke="rgb(204, 204, 204)" stroke-width="1px"></line><line x1="76.70833333333333" y1="0" x2="76.70833333333333" y2="5" style="visibility: inherit;" fill="rgb(0, 0, 0)" stroke="rgb(204, 204, 204)" stroke-width="1px"></line><line x1="153.41666666666666" y1="0" x2="153.41666666666666" y2="5" style="visibility: inherit;" fill="rgb(0, 0, 0)" stroke="rgb(204, 204, 204)" stroke-width="1px"></line><line x1="230.125" y1="0" x2="230.125" y2="5" style="visibility: inherit;" fill="rgb(0, 0, 0)" stroke="rgb(204, 204, 204)" stroke-width="1px"></line><line x1="306.8333333333333" y1="0" x2="306.8333333333333" y2="5" style="visibility: inherit;" fill="rgb(0, 0, 0)" stroke="rgb(204, 204, 204)" stroke-width="1px"></line><line x1="383.5416666666667" y1="0" x2="383.5416666666667" y2="5" style="visibility: inherit;" fill="rgb(0, 0, 0)" stroke="rgb(204, 204, 204)" stroke-width="1px"></line><line x1="460.25" y1="0" x2="460.25" y2="5" style="visibility: inherit;" fill="rgb(0, 0, 0)" stroke="rgb(204, 204, 204)" stroke-width="1px"></line><line x1="536.9583333333334" y1="0" x2="536.9583333333334" y2="5" style="visibility: inherit;" fill="rgb(0, 0, 0)" stroke="rgb(204, 204, 204)" stroke-width="1px"></line><line x1="613.6666666666666" y1="0" x2="613.6666666666666" y2="5" style="visibility: inherit;" fill="rgb(0, 0, 0)" stroke="rgb(204, 204, 204)" stroke-width="1px"></line><line x1="690.375" y1="0" x2="690.375" y2="5" style="visibility: inherit;" fill="rgb(0, 0, 0)" stroke="rgb(204, 204, 204)" stroke-width="1px"></line><line x1="767.0833333333334" y1="0" x2="767.0833333333334" y2="5" style="visibility: inherit;" fill="rgb(0, 0, 0)" stroke="rgb(204, 204, 204)" stroke-width="1px"></line><line x1="843.7916666666666" y1="0" x2="843.7916666666666" y2="5" style="visibility: inherit;" fill="rgb(0, 0, 0)" stroke="rgb(204, 204, 204)" stroke-width="1px"></line><line x1="920.5" y1="0" x2="920.5" y2="5" style="visibility: inherit;" fill="rgb(0, 0, 0)" stroke="rgb(204, 204, 204)" stroke-width="1px"></line></g><g transform="translate(0, 8)"><text x="0" y="0" dx="0em" dy="0.95em" style="text-anchor: middle; visibility: hidden; font-family: &quot;Helvetica Neue&quot;, sans-serif; font-size: 12px; font-weight: 200;" fill="rgb(50, 49, 63)" stroke="none" stroke-width="1px">-5</text><text x="76.70833333333333" y="0" dx="0em" dy="0.95em" style="text-anchor: middle; visibility: inherit; font-family: &quot;Helvetica Neue&quot;, sans-serif; font-size: 12px; font-weight: 200;" fill="rgb(50, 49, 63)" stroke="none" stroke-width="1px">0</text><text x="153.41666666666666" y="0" dx="0em" dy="0.95em" style="text-anchor: middle; visibility: inherit; font-family: &quot;Helvetica Neue&quot;, sans-serif; font-size: 12px; font-weight: 200;" fill="rgb(50, 49, 63)" stroke="none" stroke-width="1px">5</text><text x="230.125" y="0" dx="0em" dy="0.95em" style="text-anchor: middle; visibility: inherit; font-family: &quot;Helvetica Neue&quot;, sans-serif; font-size: 12px; font-weight: 200;" fill="rgb(50, 49, 63)" stroke="none" stroke-width="1px">10</text><text x="306.8333333333333" y="0" dx="0em" dy="0.95em" style="text-anchor: middle; visibility: inherit; font-family: &quot;Helvetica Neue&quot;, sans-serif; font-size: 12px; font-weight: 200;" fill="rgb(50, 49, 63)" stroke="none" stroke-width="1px">15</text><text x="383.5416666666667" y="0" dx="0em" dy="0.95em" style="text-anchor: middle; visibility: inherit; font-family: &quot;Helvetica Neue&quot;, sans-serif; font-size: 12px; font-weight: 200;" fill="rgb(50, 49, 63)" stroke="none" stroke-width="1px">20</text><text x="460.25" y="0" dx="0em" dy="0.95em" style="text-anchor: middle; visibility: inherit; font-family: &quot;Helvetica Neue&quot;, sans-serif; font-size: 12px; font-weight: 200;" fill="rgb(50, 49, 63)" stroke="none" stroke-width="1px">25</text><text x="536.9583333333334" y="0" dx="0em" dy="0.95em" style="text-anchor: middle; visibility: inherit; font-family: &quot;Helvetica Neue&quot;, sans-serif; font-size: 12px; font-weight: 200;" fill="rgb(50, 49, 63)" stroke="none" stroke-width="1px">30</text><text x="613.6666666666666" y="0" dx="0em" dy="0.95em" style="text-anchor: middle; visibility: inherit; font-family: &quot;Helvetica Neue&quot;, sans-serif; font-size: 12px; font-weight: 200;" fill="rgb(50, 49, 63)" stroke="none" stroke-width="1px">35</text><text x="690.375" y="0" dx="0em" dy="0.95em" style="text-anchor: middle; visibility: inherit; font-family: &quot;Helvetica Neue&quot;, sans-serif; font-size: 12px; font-weight: 200;" fill="rgb(50, 49, 63)" stroke="none" stroke-width="1px">40</text><text x="767.0833333333334" y="0" dx="0em" dy="0.95em" style="text-anchor: middle; visibility: inherit; font-family: &quot;Helvetica Neue&quot;, sans-serif; font-size: 12px; font-weight: 200;" fill="rgb(50, 49, 63)" stroke="none" stroke-width="1px">45</text><text x="843.7916666666666" y="0" dx="0em" dy="0.95em" style="text-anchor: middle; visibility: inherit; font-family: &quot;Helvetica Neue&quot;, sans-serif; font-size: 12px; font-weight: 200;" fill="rgb(50, 49, 63)" stroke="none" stroke-width="1px">50</text><text x="920.5" y="0" dx="0em" dy="0.95em" style="text-anchor: middle; visibility: hidden; font-family: &quot;Helvetica Neue&quot;, sans-serif; font-size: 12px; font-weight: 200;" fill="rgb(50, 49, 63)" stroke="none" stroke-width="1px">55</text></g><line x1="0" y1="0" x2="920.5" y2="0" fill="rgb(0, 0, 0)" stroke="rgb(204, 204, 204)" stroke-width="1px"></line></g></g></g></g></svg>